HIERARCHY
ROOT Hips
{
	OFFSET 0.00000 0.00000 0.00000
	CHANNELS 6 Xposition Yposition Zposition Yrotation Zrotation Xrotation 
	JOINT Lumbar
	{
		OFFSET 0 0 0
		CHANNELS 3 Zrotation Xrotation Yrotation
		JOINT Neck
		{
			OFFSET 0.00 0.2701 0.00
			CHANNELS 3 Zrotation Xrotation Yrotation
			End Site
			{
				OFFSET 0.00 0.1379 0.00
			}
		}
		JOINT RightShoulder
		{
			OFFSET 0.0119 0.2289 0.1181
			CHANNELS 3 Zrotation Xrotation Yrotation
			JOINT RightElbow
			{
				OFFSET 0.00 -0.1475 0.00
				CHANNELS 2 Zrotation Yrotation
				JOINT RightWrist
				{
					OFFSET 0.00 -0.1605 0.00
					CHANNELS 2 Zrotation Xrotation
					End Site
					{
						OFFSET 0.0040 -0.1068 0.0006
					}
				}
			}
		}
		JOINT LeftShoulder
		{
			OFFSET 0.0119 0.2289 -0.1181
			CHANNELS 3 Zrotation Xrotation Yrotation
			JOINT LeftElbow
			{
				OFFSET 0.00 -0.1475 0.00
				CHANNELS 2 Zrotation Yrotation
				JOINT LeftWrist
				{
					OFFSET 0.00 -0.1605 0.00
					CHANNELS 2 Zrotation Xrotation
					End Site
					{
						OFFSET 0.0040 -0.1068 -0.0006
					}
				}
			}
		}
	}
	JOINT RightHip
	{
		OFFSET 0.0316 -0.0424 0.0458
		CHANNELS 3 Zrotation Xrotation Yrotation
		JOINT RightKnee
		{
			OFFSET 0.00 -0.2438 0.00
			CHANNELS 1 Zrotation
			JOINT RightAnkle
			{
				OFFSET 0.00 -0.2449 0.00
				CHANNELS 3 Zrotation Xrotation Yrotation
				End Site
				{
					OFFSET 0.1237 -0.0542 0.0051
				}
			}
		}
	}
	JOINT LeftHip
	{
		OFFSET 0.0316 -0.0424 -0.0458
		CHANNELS 3 Zrotation Xrotation Yrotation
		JOINT LeftKnee
		{
			OFFSET 0.00 -0.2438 0.00
			CHANNELS 1 Zrotation
			JOINT LeftAnkle
			{
				OFFSET 0.00 -0.2449 0.00
				CHANNELS 3 Zrotation Xrotation Yrotation
				End Site
				{
					OFFSET 0.1237 -0.0542 -0.0051
				}
			}
		}
	}
}
MOTION
Frames: 11
Frame Time: 0.02
-1.42889 0.58466 0.08447 1253.15222 0 2.21435 -0.34055 0.34043 2.33921 -24.70224 -7.2616 -4.91481 11.38042 -7.49051 0.88068 113.09059 64.38462 -14.17929 0.68912 9.88882 23.75763 -7.47183 100.03228 -81.39276 -44.85323 3.68013 5.64105 4.59268 23.0636 -23.94847 11.21228 -7.83425 -7.5547 2.97321 -3.61839 -4.73319 -19.64273 9.50364 8.33844 10.89546
-1.42889 0.58468 0.08459 1252.9871 0 2.20682 -0.24286 0.37805 2.33731 -24.97826 -7.08462 -4.91583 11.04374 -7.93378 2.22259 117.34219 67.64787 -15.46336 -0.40986 10.06517 23.6283 -7.51906 100.04945 -81.42811 -44.753 3.68595 5.62445 4.56538 23.10298 -23.87256 11.22326 -7.77517 -7.4273 2.92931 -3.62764 -4.67481 -19.60067 9.49273 8.36084 10.98207
-1.42887 0.58472 0.08469 1252.79937 0 2.19681 -0.14085 0.37858 2.33419 -25.29612 -6.73465 -4.8206 10.99961 -8.62354 3.67443 121.28282 71.4393 -16.95567 -1.58069 10.34006 23.27307 -7.66008 99.99111 -81.61852 -44.63655 3.70621 5.6026 4.53524 23.13607 -23.77335 11.2309 -7.69696 -7.27105 2.87498 -3.63272 -4.61367 -19.54054 9.4731 8.38538 11.08485
-1.42886 0.58475 0.08481 1252.62387 0 2.18739 -0.0405 0.39446 2.33024 -25.59541 -6.46028 -4.76531 10.89554 -9.2045 5.10907 125.26 75.15004 -18.48773 -2.70805 10.57352 23.01426 -7.76233 99.96753 -81.74186 -44.52648 3.72005 5.58394 4.50729 23.1725 -23.6866 11.23943 -7.62749 -7.13005 2.82717 -3.63943 -4.5542 -19.49123 9.45809 8.40849 11.17939
-1.42886 0.58478 0.08491 1252.43965 0 2.18012 0.05782 0.41667 2.3319 -25.89542 -6.19337 -4.72564 10.49603 -9.78031 6.42201 129.69068 78.22564 -19.49055 -3.88588 10.79495 22.77699 -7.8486 99.93937 -81.85233 -44.42089 3.73339 5.56163 4.47554 23.20697 -23.5907 11.25026 -7.55731 -6.97952 2.7719 -3.64695 -4.49282 -19.43062 9.44017 8.433 11.27781
-1.42884 0.58482 0.08503 1252.26862 0 2.16803 0.16153 0.41683 2.32196 -26.20232 -5.87232 -4.63089 10.76831 -10.42021 7.99878 133.10198 82.70742 -21.60448 -4.97328 11.06339 22.44372 -7.99048 99.9041 -82.02579 -44.30189 3.75115 5.54606 4.45086 23.2439 -23.50937 11.25584 -7.48452 -6.84233 2.72965 -3.65216 -4.43489 -19.38914 9.42622 8.45522 11.37179
-1.42879 0.58486 0.0852 1252.13739 0 2.14117 0.28088 0.36597 2.27662 -26.5244 -5.43874 -4.40609 12.92494 -11.20054 10.39365 133.73065 91.28703 -27.06033 -5.79945 11.44512 21.89274 -8.26078 99.86476 -82.33579 -44.15158 3.7776 5.54748 4.44823 23.28994 -23.46806 11.24561 -7.40611 -6.74722 2.72644 -3.64926 -4.38673 -19.40749 9.42637 8.4718 11.45113
-1.42874 0.5849 0.0854 1252.02096 0 2.1101 0.40521 0.29401 2.22027 -26.85033 -4.95855 -4.12971 15.72815 -12.03149 13.02795 133.34933 101.19894 -33.56701 -6.53016 11.86902 21.25534 -8.58407 99.82185 -82.70313 -43.98816 3.80795 5.55679 4.45239 23.33828 -23.44419 11.23083 -7.32641 -6.66685 2.73667 -3.64485 -4.34248 -19.44528 9.43063 8.48588 11.52497
-1.42869 0.58494 0.0856 1251.89881 0 2.0821 0.52635 0.23131 2.17135 -27.17024 -4.5036 -3.87769 18.16872 -12.82282 15.47507 133.45817 110.2738 -39.37641 -7.30034 12.2686 20.66284 -8.88454 99.78271 -83.04418 -43.82935 3.83652 5.56391 4.45236 23.3854 -23.41527 11.21929 -7.24928 -6.58106 2.74031 -3.64272 -4.29642 -19.47254 9.43243 8.5004 11.60055
-1.42865 0.58498 0.08577 1251.77036 0 2.04845 0.65194 0.16898 2.11225 -27.51036 -4.02447 -3.61758 20.91021 -13.69315 18.25586 133.42854 120.34301 -46.1142 -8.09064 12.69394 20.03723 -9.18326 99.73141 -83.3933 -43.67496 3.86578 5.56339 4.45724 23.43408 -23.3701 11.20184 -7.16282 -6.48915 2.74533 -3.63305 -4.24939 -19.50634 9.43656 8.51794 11.68066
-1.42859 0.58501 0.086 1251.66044 0 2.02644 0.7689 0.10098 2.07163 -27.80788 -3.58808 -3.36438 23.1744 -14.40753 20.39848 133.44686 128.65298 -51.17347 -8.81414 13.07366 19.46476 -9.4966 99.70609 -83.73513 -43.50938 3.89417 5.58267 4.45309 23.47883 -23.36733 11.19674 -7.09611 -6.41351 2.75116 -3.63963 -4.20661 -19.53134 9.43675 8.52858 11.74886
